<svg id="Layer_1" data-name="Layer 1" xmlns="http://www.w3.org/2000/svg" viewBox="0 0 220 220"><defs><style>.cls-1{fill:#f27121;}.cls-2,.cls-3{fill:none;stroke:#000;stroke-miterlimit:10;}.cls-2{stroke-width:2px;}</style></defs><polygon class="cls-1" points="149.39 129.78 140.94 129.91 141.89 120.96 147.97 120.96 149.39 129.78"/><polygon class="cls-2" points="70.61 101.21 108.7 90.09 147.63 101.21 111.26 112.83 70.61 101.21"/><path class="cls-2" d="M86.08,105.63v16.09s22.17,13.19,47-.18c.3-5.08,0-15.45,0-15.45"/><polyline class="cls-2" points="144.9 102.32 144.9 120.68 143.4 120.69 141.8 120.69 140.47 129.78 149.39 129.78 148 120.69"/><path d="M100.05,44.37H98.28a.08.08,0,0,1-.09-.08,32.63,32.63,0,0,1,1.11-7.8l0-.15h-.7a.46.46,0,0,0-.45.34,33.65,33.65,0,0,0-1,7.61.07.07,0,0,1-.08.08H92.6a.07.07,0,0,1-.08-.08,29.16,29.16,0,0,0-1.2-7.62.46.46,0,0,0-.45-.33h-.72l0,.17a28.41,28.41,0,0,1,1.29,7.78.08.08,0,0,1-.09.08h-2a.52.52,0,0,0-.52.52.51.51,0,0,0,.52.51h2a.09.09,0,0,1,.09.09,28.41,28.41,0,0,1-1.29,7.78l-.15.49,1,.3.15-.49a29.09,29.09,0,0,0,1.34-8.09.08.08,0,0,1,.08-.08h4.48a.08.08,0,0,1,.08.09,33.29,33.29,0,0,0,1.15,8.06l.13.5,1-.27-.14-.49a32.63,32.63,0,0,1-1.11-7.8.09.09,0,0,1,.09-.09h1.77a.51.51,0,0,0,.52-.51A.52.52,0,0,0,100.05,44.37Z"/><path d="M100.05,44.4H98.34s-.13,0-.16-.06c0-.23,0-.42,0-.63,0-.84.09-1.66.19-2.49a33.76,33.76,0,0,1,.94-4.89l0,0h-.71a.45.45,0,0,0-.43.43c-.12.46-.22.92-.32,1.39-.19.93-.34,1.87-.46,2.81s-.18,1.89-.21,2.84v.44a.14.14,0,0,1,0,.11c-.09,0-.13,0-.2,0H92.58a.12.12,0,0,1-.09-.08,1.37,1.37,0,0,1,0-.19v-.35a27.77,27.77,0,0,0-.79-5.64c-.11-.46-.23-.92-.36-1.37a.45.45,0,0,0-.45-.4h-.71l0-.06a29,29,0,0,1,1.17,5.46c0,.46.1.92.13,1.39l0,.69v.35a.33.33,0,0,1,0,.1.12.12,0,0,1-.07.1.72.72,0,0,1-.2,0H89.87c-.23,0-.48,0-.66.07a.46.46,0,0,0,.29.86h1.93c.1,0,.12.15.11.19,0,.93-.1,1.86-.21,2.78a29.78,29.78,0,0,1-1.24,5.44l0-.06L91,54l-.05,0a30.19,30.19,0,0,0,1.24-5.38c.12-.92.2-1.84.23-2.76l0-.34v-.09a.11.11,0,0,1,.07-.1.68.68,0,0,1,.19,0h4.32c.08,0,.16.08.14.14v.35c0,.92.09,1.84.2,2.76A34.61,34.61,0,0,0,98.47,54l0,0,1-.27,0,0a34.39,34.39,0,0,1-1.1-5.86c0-.5-.08-1-.1-1.49l0-.74v-.19c0-.08.08-.16.14-.13h.37c.5,0,1,0,1.49,0a.49.49,0,0,0,.37-.53A.5.5,0,0,0,100.05,44.4Zm0,0a.54.54,0,0,1,.54.47.55.55,0,0,1-.41.6c-.51,0-1,0-1.5,0h-.37c-.06,0-.07,0-.07.06v.18l0,.75c0,.49.07,1,.12,1.48.1,1,.24,2,.43,2.95s.43,1.93.7,2.89l0,.08-.09,0-1,.28-.1,0,0-.1a35.66,35.66,0,0,1-1.15-5.43c-.11-.92-.19-1.85-.23-2.78l0-.34c0-.07,0,0,0,.06a.09.09,0,0,0,.06,0s0,0,0,0H96.2l-1.39,0-1.38,0h-.82l.08,0a.2.2,0,0,0,.11-.17v.42c0,.94-.09,1.87-.2,2.8a29.87,29.87,0,0,1-1.19,5.46l-.12.37-.38-.11-1-.3L89.54,54l.13-.38a29.28,29.28,0,0,0,1.18-5.37c.11-.91.17-1.82.19-2.73v0h0v.05s0,.06,0,.09a.38.38,0,0,0,.27.22H89.5a1,1,0,0,1-.27,0,.79.79,0,0,1-.3-.12,1,1,0,0,1-.39-.51A1,1,0,0,1,89,44.07a1.11,1.11,0,0,1,.3-.12h2.09l-.09,0a.34.34,0,0,0-.2.26v-.36l0-.68c0-.46-.07-.92-.11-1.37a29.9,29.9,0,0,0-1.12-5.38l-.16-.5h1.23a.81.81,0,0,1,.81.61l0,.09c.13.46.25.93.36,1.4.21.93.37,1.88.49,2.83a27.72,27.72,0,0,1,.22,2.87v.5h0a.06.06,0,0,0,0,0,.16.16,0,0,0-.13-.11s0,0,0,0h.76l1.42,0,1.43,0h.83a.06.06,0,0,0,0,0s0,.08,0,.07v-.09l0-.36c0-.95.12-1.9.25-2.85s.29-1.89.5-2.82c.11-.46.21-.93.33-1.39a.74.74,0,0,1,.17-.36.55.55,0,0,1,.38-.16h.82l0,.1a33.31,33.31,0,0,0-1,4.87c-.1.82-.17,1.65-.2,2.48,0,.2,0,.43,0,.6s0,0,.11,0h1.71Z"/><path d="M71.9,165.12a.26.26,0,0,0,0-.41l-1.17-.88v.58A1.47,1.47,0,0,1,69.35,163V151a2,2,0,0,0-.41-1.24,1.78,1.78,0,0,0-1.5-.65,3.06,3.06,0,0,0-1.92.81.38.38,0,0,1-.55-.07,2,2,0,0,0-.24-.27,1.73,1.73,0,0,0-1.33-.47,3.27,3.27,0,0,0-2.26,1.15.43.43,0,0,1-.65,0,3.07,3.07,0,0,0-1.69-.92.5.5,0,0,0-.58.49h0a.51.51,0,0,0,.42.5,2.14,2.14,0,0,1,1.71,2.09v10.06a.51.51,0,0,0,.51.5h0a.51.51,0,0,0,.5-.5V152.34a2.23,2.23,0,0,1,.51-1.45,2.35,2.35,0,0,1,1.6-.83.75.75,0,0,1,.58.21.82.82,0,0,1,.26.61v11.57a.51.51,0,0,0,.51.5h0a.51.51,0,0,0,.5-.5v-9.83a2.64,2.64,0,0,1,.9-2,2.2,2.2,0,0,1,1.29-.53.73.73,0,0,1,.57.21.82.82,0,0,1,.27.61V163a2.47,2.47,0,0,0,2.38,2.46V166Z"/><path d="M71.88,165.1a.22.22,0,0,0,0-.37l-.38-.29-.77-.59,0,0v.6h0a1.51,1.51,0,0,1-1.27-.87,1.67,1.67,0,0,1-.13-.79v-12a1.82,1.82,0,0,0-.68-1.35,1.77,1.77,0,0,0-1.47-.35,3.2,3.2,0,0,0-1.44.62c-.11.07-.18.18-.33.23a.39.39,0,0,1-.4-.08,2.42,2.42,0,0,0-.57-.54,1.59,1.59,0,0,0-.73-.25,2.57,2.57,0,0,0-.78.06,3.35,3.35,0,0,0-1.39.71l-.28.28a.68.68,0,0,1-.33.24.47.47,0,0,1-.41-.1c-.11-.09-.19-.18-.29-.27a3.09,3.09,0,0,0-1.4-.67.45.45,0,0,0-.55.36.47.47,0,0,0,.37.55,2.18,2.18,0,0,1,1.34.85,2.32,2.32,0,0,1,.42,1.53v9.56a2.3,2.3,0,0,0,0,.38.44.44,0,0,0,.23.27.45.45,0,0,0,.61-.2.74.74,0,0,0,.05-.37v-9.16a4.77,4.77,0,0,1,.14-1.59,2.35,2.35,0,0,1,1-1.21,2.19,2.19,0,0,1,.76-.28.89.89,0,0,1,.79.15.9.9,0,0,1,.33.74v11.15c0,.27,0,.55.17.72a.46.46,0,0,0,.65-.06c.17-.19.09-.48.11-.74v-8c0-.54,0-1.06,0-1.6a2.65,2.65,0,0,1,.54-1.49,2.35,2.35,0,0,1,1.33-.87,1,1,0,0,1,.79,0,.85.85,0,0,1,.43.67v11.95a3,3,0,0,0,.07.79,2.47,2.47,0,0,0,2.28,1.85h0V166l0,0Zm0,0-1.16.89,0,0v-.66l0,0a2.54,2.54,0,0,1-2.35-1.89,2.79,2.79,0,0,1-.08-.81v-2.39l0-6.37,0-3.17a.71.71,0,0,0-.34-.54.59.59,0,0,0-.31-.07,1.49,1.49,0,0,0-.36,0,2.13,2.13,0,0,0-1.2.81,2.48,2.48,0,0,0-.48,1.38c0,.51,0,1.06,0,1.59l0,3.18,0,3.19,0,1.59v.4a.86.86,0,0,1,0,.29.76.76,0,0,1-.15.28.81.81,0,0,1-1.16.1.8.8,0,0,1-.29-.57v-1.21l0-1.6,0-3.18v-5.58a.45.45,0,0,0-.16-.37.35.35,0,0,0-.16-.08h-.1l-.16,0a1.77,1.77,0,0,0-.59.23,2,2,0,0,0-.51.42,1.84,1.84,0,0,0-.32.54,2,2,0,0,0-.1.64v2.39l0,6.37v1.19a2.11,2.11,0,0,1,0,.23.86.86,0,0,1-.09.35.92.92,0,0,1-1.7-.15.86.86,0,0,1,0-.17V159c0-2.12,0-4.25.06-6.37a2.31,2.31,0,0,0-.05-.71,1.78,1.78,0,0,0-.28-.61,1.85,1.85,0,0,0-1.12-.74.81.81,0,0,1-.5-.33.76.76,0,0,1-.12-.6.81.81,0,0,1,.33-.5.77.77,0,0,1,.6-.11,3.45,3.45,0,0,1,1.53.76l.16.14.12.13a.19.19,0,0,0,.16,0c.07,0,.29-.29.5-.45a3.58,3.58,0,0,1,1.51-.75,3.07,3.07,0,0,1,.86-.06,2,2,0,0,1,.83.3,1.91,1.91,0,0,1,.35.27l.25.3a.17.17,0,0,0,.18.05s.16-.13.27-.21a3.32,3.32,0,0,1,1.54-.63,2,2,0,0,1,2.33,1.89v1.6l0,6.37v4a1.62,1.62,0,0,0,.12.76,1.46,1.46,0,0,0,1.21.84l0,0v-.65l0,.05.77.58.38.29A.28.28,0,0,1,71.91,165.14Z"/><path d="M101.85,175.44H96.51l.54-.77a4,4,0,0,0,.58-1.17,4.15,4.15,0,1,0-7.39,1.15l.55.79H85.45a.5.5,0,0,1-.5-.5h0a.5.5,0,0,1,.5-.5H88.3a.46.46,0,0,0,.43-.61,5.29,5.29,0,0,1-.16-2.38,5.15,5.15,0,0,1,10.23.84,5.27,5.27,0,0,1-.23,1.54.46.46,0,0,0,.43.61h2.85a.5.5,0,0,1,.5.5h0A.5.5,0,0,1,101.85,175.44Z"/><path d="M101.85,175.47l-5.34,0h-.13l.07-.11a5.71,5.71,0,0,0,1.14-2.16,4.11,4.11,0,0,0-.2-2.38,4,4,0,0,0-3.74-2.46,3.81,3.81,0,0,0-3.55,2.53,4,4,0,0,0-.1,2.24,3.78,3.78,0,0,0,.44,1c.19.3.46.67.69,1l.44.64h-.78l-4.4,0h-1a.7.7,0,0,1-.25,0,.94.94,0,0,1,.23-1.83h2.94a0,0,0,0,0,0,0c0,.05-.07-.25-.11-.42a5.45,5.45,0,0,1,2.72-6,5.32,5.32,0,0,1,7.57,2.78,5.68,5.68,0,0,1,.35,2.2,4.61,4.61,0,0,1-.19,1.1c0,.18-.12.34,0,.49a.4.4,0,0,0,.38.24h2.75a.55.55,0,0,1,.51.23.52.52,0,0,1,0,.55A.51.51,0,0,1,101.85,175.47Zm0-.05a.48.48,0,0,0,.43-.26.5.5,0,0,0,0-.5.53.53,0,0,0-.46-.2H99a.49.49,0,0,1-.47-.29.57.57,0,0,1,0-.29c0-.1.06-.18.08-.27a5.53,5.53,0,0,0,.17-1.08,5.23,5.23,0,0,0-.37-2.14,5.11,5.11,0,0,0-9.72,3.06,3,3,0,0,1,.12.55.5.5,0,0,1-.35.45,10.37,10.37,0,0,1-1.11,0H85.69c-.19,0-.37,0-.5.08a.45.45,0,0,0,.12.8,3,3,0,0,0,.53,0h5l0,.07c-.24-.35-.49-.68-.71-1a4,4,0,0,1-.47-1.16,4.2,4.2,0,0,1,.16-2.48,4.13,4.13,0,0,1,3.91-2.67,4.18,4.18,0,0,1,3.9,2.67,4.29,4.29,0,0,1,.16,2.48,5.84,5.84,0,0,1-1.18,2.19l0-.05Z"/><path d="M102.35,177.44a.5.5,0,0,1-.5.51H85.45a.5.5,0,0,1-.5-.51h0a.5.5,0,0,1,.5-.5h16.4a.5.5,0,0,1,.5.5Z"/><path d="M102.38,177.44a.55.55,0,0,1-.29.49,1.61,1.61,0,0,1-.57.06h-1.13l-2.24,0-4.5.16-4.49.15-2.25,0-1.12,0h-.5a1,1,0,0,1-.25-.08,1,1,0,0,1-.54-.86,1,1,0,0,1,.54-.85l.25-.08h1.62l2.25,0,4.49.15,4.5.16,2.24,0h1.13a1.61,1.61,0,0,1,.57.06A.55.55,0,0,1,102.38,177.44Zm0,0a.48.48,0,0,0-.27-.42,1.38,1.38,0,0,0-.54-.05H85.79a1.35,1.35,0,0,0-.54,0,.45.45,0,0,0,0,.81,1.35,1.35,0,0,0,.54.05h15.73a1.38,1.38,0,0,0,.54,0A.48.48,0,0,0,102.33,177.44Z"/><path d="M51.24,126.38h0a.43.43,0,0,0,.28-.54l-2-5.94a.43.43,0,0,0-.63-.24l-5.42,3.13a.43.43,0,0,0-.16.59h0a.44.44,0,0,0,.6.16L48,121.2a.09.09,0,0,1,.13.11L45,129.47a0,0,0,0,1,0,0l-2.1-.8a.43.43,0,0,0-.56.25l0,.13a.44.44,0,0,0,.25.56l2.1.8a.05.05,0,0,1,0,0l-1.58,4.14a.44.44,0,0,0,.25.56l.13,0A.44.44,0,0,0,44,135l1.58-4.14s0,0,0,0l2.1.8a.43.43,0,0,0,.56-.25l0-.13a.44.44,0,0,0-.25-.56l-2.11-.8s0,0,0-.05l3.11-8.16a.09.09,0,0,1,.16,0l1.47,4.44A.43.43,0,0,0,51.24,126.38Z"/><path d="M51.23,126.36a.41.41,0,0,0,.28-.36,1.55,1.55,0,0,0-.13-.49l-.32-1-.65-2-.65-2-.16-.49c-.06-.16-.09-.34-.22-.43-.3-.23-.61.1-.9.24L44.92,122l-.89.52-.45.25a.43.43,0,0,0-.26.38.42.42,0,0,0,.24.37.44.44,0,0,0,.45-.08l.9-.51,1.78-1,.89-.52.22-.13.11-.06a.19.19,0,0,1,.15,0,.12.12,0,0,1,.1.13,1.27,1.27,0,0,1,0,.14l-.09.24-1.47,3.85-1.46,3.84,0,.12a.1.1,0,0,1-.1.07l-.07,0-.24-.09-.48-.18-1-.37a3.38,3.38,0,0,0-.48-.16.4.4,0,0,0-.37.21.55.55,0,0,0-.06.46c.06.15.21.2.37.26l1.93.73s.07,0,.08.08,0,.06,0,.09l0,.12-.09.24-.18.48-.37,1-.73,1.92a3.47,3.47,0,0,0-.17.48.39.39,0,0,0,.21.38.56.56,0,0,0,.45.06c.16-.06.22-.2.28-.37L45.47,131l.05-.12s0-.07.07-.07.06,0,.08,0l.24.09.48.19,1,.36a3,3,0,0,0,.47.17.4.4,0,0,0,.39-.2.57.57,0,0,0,.07-.47.54.54,0,0,0-.37-.28L46,129.92s0,0-.08,0,0-.07,0-.09l0-.12.1-.24.18-.48.37-1,1.46-3.85.73-1.92.19-.48a.49.49,0,0,1,.06-.13.13.13,0,0,1,.16,0,2.16,2.16,0,0,1,.1.25l.32,1,.65,2,.32,1a1.76,1.76,0,0,0,.18.47A.43.43,0,0,0,51.23,126.36Zm0,0a.47.47,0,0,1-.5-.14,1.81,1.81,0,0,1-.2-.48l-.33-1-.66-1.95-.33-1-.08-.21s0,0-.06.08l-.18.49-.72,1.93-1.39,3.87-.35,1-.17.48-.09.24,0,.13s0,0,0,0a.2.2,0,0,0,0-.13s-.08-.07-.08-.07h0l1.94.7a1.34,1.34,0,0,1,.28.12.71.71,0,0,1,.26.31.67.67,0,0,1,0,.4,1.54,1.54,0,0,1-.11.3.69.69,0,0,1-.68.38l-.19,0-.12,0-.25-.09-1-.35-.48-.17-.24-.09h0s0,0,0,0a.2.2,0,0,0,.11,0,.31.31,0,0,0,.19-.11l0,0,0,.12L44.41,135l0,.12a1.22,1.22,0,0,1-.1.2.93.93,0,0,1-.37.31.79.79,0,0,1-.48,0,1.5,1.5,0,0,1-.34-.12.82.82,0,0,1-.45-.82.86.86,0,0,1,0-.23l0-.12.08-.24.72-1.93.36-1,.18-.48.09-.24,0-.13,0,0a.45.45,0,0,0,0,.21.4.4,0,0,0,.18.26l.06,0h0l-1.93-.72a1.37,1.37,0,0,1-.32-.14.94.94,0,0,1-.34-.4,1,1,0,0,1-.05-.51,1.84,1.84,0,0,1,.13-.36.88.88,0,0,1,.85-.48.92.92,0,0,1,.25.06l.12.05.24.09,1,.37.48.19.24.09h0a.36.36,0,0,0-.3.06.29.29,0,0,0-.1.12l0,.05.05-.12,1.49-3.84,1.53-3.82.09-.24,0-.06v0s0,0,0,0a.22.22,0,0,0,.18.24.23.23,0,0,0,.15,0l0,0-.12.06-.22.12-.9.5-1.81,1-.9.49-.12.07a.55.55,0,0,1-.18.06.66.66,0,0,1-.37,0,.64.64,0,0,1-.38-.61.57.57,0,0,1,.12-.35.69.69,0,0,1,.26-.21l.45-.25.9-.5,3.6-2,.45-.26a.53.53,0,0,1,.57,0,.61.61,0,0,1,.18.24l.08.25.16.49.63,2,.63,2,.32,1a1.93,1.93,0,0,1,.13.5A.48.48,0,0,1,51.25,126.41Z"/><path d="M133.36,180.92a.5.5,0,0,0-.35-.47,1.55,1.55,0,0,1-1-1.46v-.84l0-.08a9.58,9.58,0,0,0,3.68-5.47c.5-2.14.1-4-1-4.93a2.07,2.07,0,0,0-1.83-.5,2.22,2.22,0,0,0-.85.44v-.5a1.94,1.94,0,0,0-.44-1.29,1.78,1.78,0,0,0-1.48-.63,3.18,3.18,0,0,0-2,.94.2.2,0,0,1-.32,0,1.86,1.86,0,0,0-.33-.41,1.71,1.71,0,0,0-1.33-.48,3.3,3.3,0,0,0-2.25,1.13.49.49,0,0,1-.71,0,3.1,3.1,0,0,0-1.65-.88.5.5,0,0,0-.16,1,2.15,2.15,0,0,1,1.72,2.1v10.05a.51.51,0,0,0,1,0V168.49a2.21,2.21,0,0,1,.51-1.46,2.32,2.32,0,0,1,1.6-.84.77.77,0,0,1,.57.21.84.84,0,0,1,.27.61v11.57a.5.5,0,0,0,1,0V168a2.75,2.75,0,0,1,2.19-1.81.79.79,0,0,1,.58.21.84.84,0,0,1,.27.61V177.5l-.05.09a8.17,8.17,0,0,1-1.95.82.47.47,0,0,0-.35.56V179a.48.48,0,0,0,.6.36,8.7,8.7,0,0,0,1.6-.61.1.1,0,0,1,.14.09V179a2.55,2.55,0,0,0,1.7,2.4.5.5,0,0,0,.67-.47Zm-.74-12.53a1.2,1.2,0,0,1,.46-.24,1.14,1.14,0,0,1,1,.31c.82.64,1.08,2.18.68,3.91a8.56,8.56,0,0,1-2.58,4.32.1.1,0,0,1-.16-.07v-6.8A1.82,1.82,0,0,1,132.62,168.39Z"/><path d="M133.33,180.92a.48.48,0,0,0-.16-.35,1.84,1.84,0,0,0-.37-.19,1.62,1.62,0,0,1-.61-.58A1.65,1.65,0,0,1,132,179v-.84h0l0-.07h0a9.53,9.53,0,0,0,3.81-6.19,5.15,5.15,0,0,0-.63-3.59,2.69,2.69,0,0,0-1.46-1.06,1.9,1.9,0,0,0-1.72.43l0,.05v-.08a4.6,4.6,0,0,0-.07-1.05,1.64,1.64,0,0,0-.53-.88,1.62,1.62,0,0,0-.93-.44,2.41,2.41,0,0,0-1,.11,3.1,3.1,0,0,0-1,.46,4.23,4.23,0,0,0-.4.34.24.24,0,0,1-.29,0c-.1-.05-.12-.15-.17-.21a1.77,1.77,0,0,0-1.84-.72,3.21,3.21,0,0,0-1.82,1c-.11.12-.27.29-.47.27a.66.66,0,0,1-.49-.25,3.19,3.19,0,0,0-.87-.57,3,3,0,0,0-.5-.17.54.54,0,0,0-.48,0,.47.47,0,0,0,0,.81c.14.06.34.08.5.15a2.77,2.77,0,0,1,.48.26,2.23,2.23,0,0,1,.69.83,2.35,2.35,0,0,1,.21,1v9.59a1.69,1.69,0,0,0,0,.51.45.45,0,0,0,.36.29.42.42,0,0,0,.42-.17.7.7,0,0,0,.1-.48v-9.59a3,3,0,0,1,.12-1.07,2.19,2.19,0,0,1,.58-.91,2.43,2.43,0,0,1,.92-.56,1.91,1.91,0,0,1,.54-.1.78.78,0,0,1,.53.15.91.91,0,0,1,.32.45,2.07,2.07,0,0,1,0,.55v11.19a.52.52,0,0,0,.17.45.47.47,0,0,0,.46.07.47.47,0,0,0,.29-.36V168h0a3.18,3.18,0,0,1,1.14-1.45,2.28,2.28,0,0,1,.86-.34,1.11,1.11,0,0,1,.48,0,.87.87,0,0,1,.4.26.88.88,0,0,1,.21.42c0,.17,0,.32,0,.47V177.5h0l0,.08h0a7.47,7.47,0,0,1-1.1.54c-.19.08-.39.15-.58.21s-.42.08-.53.25a.5.5,0,0,0,0,.55.45.45,0,0,0,.5.19,7.83,7.83,0,0,0,1.15-.4l.28-.12.14-.07a.13.13,0,0,1,.17,0,.2.2,0,0,1,0,.16v.16a1.53,1.53,0,0,0,0,.3,2.35,2.35,0,0,0,.47,1.1,2.49,2.49,0,0,0,.93.77.73.73,0,0,0,.57.1A.49.49,0,0,0,133.33,180.92Zm0,0a.53.53,0,0,1-.35.5.75.75,0,0,1-.6-.1,2.6,2.6,0,0,1-1.45-1.91c0-.1,0-.21,0-.31v-.16c0-.05,0-.1,0-.12s-.13,0-.23.07l-.28.13a7.59,7.59,0,0,1-1.16.41.55.55,0,0,1-.6-.23.59.59,0,0,1,0-.64.63.63,0,0,1,.28-.2l.29-.09.57-.2a6.91,6.91,0,0,0,1.09-.54l0,0,.05-.08v0c0-2.46,0-4.93,0-7.39l0-1.85v-.93c0-.15,0-.32,0-.43a.65.65,0,0,0-.17-.34.55.55,0,0,0-.3-.18.86.86,0,0,0-.39,0,2,2,0,0,0-.78.32,3.06,3.06,0,0,0-1,1.36l0-.07.09,8.52,0,1.07v1a.41.41,0,0,1,0,.11.84.84,0,0,1-.52.66.83.83,0,0,1-.83-.14.75.75,0,0,1-.26-.35,1,1,0,0,1,0-.38V178l0-4.27,0-4.26V167a.59.59,0,0,0,0-.14.45.45,0,0,0-.15-.21.31.31,0,0,0-.22-.06,2,2,0,0,0-.42.08,1.92,1.92,0,0,0-1.19,1.17,3.15,3.15,0,0,0-.09.42c0,.14,0,.31,0,.5v1.06c0,1.42,0,2.84,0,4.27l0,4.26v.2a.49.49,0,0,0,0,.12.87.87,0,0,1-.19.44.93.93,0,0,1-.86.35.91.91,0,0,1-.72-.59,1.16,1.16,0,0,1-.06-.4v-2.4l0-4.27,0-2.13v-1.06a1.87,1.87,0,0,0-.17-.89,1.74,1.74,0,0,0-.56-.7,2.24,2.24,0,0,0-.4-.22.86.86,0,0,0-.21-.07l-.13,0a.62.62,0,0,1-.19-.07.8.8,0,0,1,0-1.39.67.67,0,0,1,.41-.11,1.21,1.21,0,0,1,.33,0,3.56,3.56,0,0,1,1.5.84l.1.1,0,0a.28.28,0,0,0,.13,0,.12.12,0,0,0,.1,0l.06,0,.1-.1a3.39,3.39,0,0,1,2-1,2.1,2.1,0,0,1,1.16.1,2.08,2.08,0,0,1,.92.74l.07.12v0s0,0,0,0a3.73,3.73,0,0,1,.43-.36,3.47,3.47,0,0,1,1-.48,2.87,2.87,0,0,1,1.13-.1,1.92,1.92,0,0,1,1.6,1.48,4.06,4.06,0,0,1,.06,1.09l-.21-.1a2,2,0,0,1,1.85-.44,2.82,2.82,0,0,1,1.53,1.13,5.25,5.25,0,0,1,.63,3.67,9.22,9.22,0,0,1-1.31,3.51,9.39,9.39,0,0,1-2.56,2.73l0,0,0,.08V179a1.55,1.55,0,0,0,.21.78,1.51,1.51,0,0,0,.59.56,2.24,2.24,0,0,1,.37.2A.53.53,0,0,1,133.38,180.92Z"/><path d="M132.61,168.37a1.14,1.14,0,0,1,.55-.27,1.18,1.18,0,0,1,.61.13,2,2,0,0,1,.83.89,4.38,4.38,0,0,1,.31,2.4,8.37,8.37,0,0,1-1.95,4.42c-.14.15-.27.3-.42.45l-.22.21-.11.1a.16.16,0,0,1-.19.05c-.07,0-.08-.14-.08-.17v-5.94a8.29,8.29,0,0,1,0-1.22A1.82,1.82,0,0,1,132.61,168.37Zm0,0a1.72,1.72,0,0,0-.57,1,2.41,2.41,0,0,0,0,.6l0,.61.15,2.43.15,2.44,0,.61v.49s0,0,0,0a.13.13,0,0,0,0-.06.32.32,0,0,0-.17-.2.33.33,0,0,0-.26,0,.24.24,0,0,0-.12.07l0,0,.1-.1a1.89,1.89,0,0,0,.2-.2c.14-.14.26-.28.39-.43a10,10,0,0,0,1.28-1.92,7.8,7.8,0,0,0,.78-2.2,4.25,4.25,0,0,0-.14-2.32,1.81,1.81,0,0,0-.77-.87.92.92,0,0,0-.56-.14A1,1,0,0,0,132.64,168.41Z"/><path d="M163.78,161.29a.52.52,0,0,0-.5.42,2,2,0,0,1-1.92,1.55,1.72,1.72,0,0,1-1.47-.64c-.86-1.12-.81-3.73.16-7.35.09-.34.18-.68.28-1a29.64,29.64,0,0,0,.71-2.92c.5-2.78.09-4.73-1.27-6a3.87,3.87,0,0,0-1.79-.91,4.24,4.24,0,0,0-3.58.86,5,5,0,0,0-1.51,4,14.91,14.91,0,0,0,.76,4.39.24.24,0,0,1-.28.31,3.88,3.88,0,0,0-2,0,4,4,0,1,0,3.85,1v0a15.6,15.6,0,0,1-1.32-5.74,4.2,4.2,0,0,1,1.15-3.26,3.31,3.31,0,0,1,2.73-.65,2.87,2.87,0,0,1,1.33.68c1.07,1,1.39,2.63,1,5a27,27,0,0,1-.69,2.82c-.1.34-.19.69-.28,1-1.08,4-1.08,6.81,0,8.22a2.7,2.7,0,0,0,2.27,1,3,3,0,0,0,2.92-2.4.5.5,0,0,0-.5-.58Zm-10.69-.57a2.94,2.94,0,1,1,2.18-2.19A2.94,2.94,0,0,1,153.09,160.72Z"/><path d="M163.78,161.32a.47.47,0,0,0-.38.2,1.54,1.54,0,0,0-.16.44,2,2,0,0,1-2.32,1.29,1.67,1.67,0,0,1-.86-.4,2.15,2.15,0,0,1-.51-.81,5.43,5.43,0,0,1-.3-1.87,29.7,29.7,0,0,1,1.46-7.46,14,14,0,0,0,.5-3.75,6.42,6.42,0,0,0-.33-1.85,4.21,4.21,0,0,0-1-1.59,4,4,0,0,0-3.46-1.07,3.9,3.9,0,0,0-2.94,2.11,7,7,0,0,0-.5,3.7,15,15,0,0,0,.28,1.88c.07.3.15.61.23.92l.14.45.07.23a.31.31,0,0,1-.07.26.28.28,0,0,1-.26.09l-.23-.05a3.62,3.62,0,0,0-.46-.06,3.28,3.28,0,0,0-.94.05,3.8,3.8,0,0,0-1.7.76,3.88,3.88,0,0,0,.35,6.38,3.89,3.89,0,0,0,4.8-6h0a17,17,0,0,1-1.27-4.74,7.81,7.81,0,0,1,.08-2.46,3.1,3.1,0,0,1,1.27-2,3.34,3.34,0,0,1,2.38-.5,2.92,2.92,0,0,1,2,1.33,4.5,4.5,0,0,1,.62,2.37,11.11,11.11,0,0,1-.25,2.44c-.32,1.61-.87,3.16-1.22,4.75a15.61,15.61,0,0,0-.44,4.86,4.14,4.14,0,0,0,.87,2.24,2.77,2.77,0,0,0,2.18.88,3,3,0,0,0,2.15-1,2.92,2.92,0,0,0,.6-1c.05-.19.15-.4.07-.58A.5.5,0,0,0,163.78,161.32Zm0,0a.56.56,0,0,1,.5.34.58.58,0,0,1,0,.32c0,.1-.05.2-.08.3a3.17,3.17,0,0,1-.61,1.07,3.08,3.08,0,0,1-2.2,1,2.86,2.86,0,0,1-2.25-.9,4.21,4.21,0,0,1-.9-2.29,15.55,15.55,0,0,1,.41-4.9c.33-1.61.85-3.17,1.15-4.76a10.83,10.83,0,0,0,.22-2.4,4.33,4.33,0,0,0-.62-2.22,2.62,2.62,0,0,0-1.83-1.18,3,3,0,0,0-2.14.48,2.81,2.81,0,0,0-1.11,1.85,7.63,7.63,0,0,0,0,2.34,16.85,16.85,0,0,0,1.28,4.6l-.09-.12a4.36,4.36,0,0,1-1.31,7,4.34,4.34,0,0,1-6.13-3.77,4.34,4.34,0,0,1,3.6-4.5,4.6,4.6,0,0,1,1.05-.06l.52.07.22.06a.16.16,0,0,0-.14.05.13.13,0,0,0,0,.13l-.06-.2-.13-.47c-.09-.31-.17-.63-.23-.94a14,14,0,0,1-.27-1.93,7.28,7.28,0,0,1,.59-3.89,4,4,0,0,1,1.33-1.53,4.44,4.44,0,0,1,1.87-.73,4.23,4.23,0,0,1,3.69,1.2,4.49,4.49,0,0,1,1,1.68,6.39,6.39,0,0,1,.31,1.93,13.47,13.47,0,0,1-.55,3.79,28.79,28.79,0,0,0-1.5,7.41,5.22,5.22,0,0,0,.27,1.85,2.25,2.25,0,0,0,.49.78,1.6,1.6,0,0,0,.83.39,2,2,0,0,0,2.25-1.24,2,2,0,0,1,.16-.45A.53.53,0,0,1,163.78,161.27Z"/><path d="M153.09,160.74a3.18,3.18,0,0,1-1.15,0,3.25,3.25,0,0,1-1.09-.4,3,3,0,0,1-1.32-1.85,3.07,3.07,0,0,1,.35-2.24,3,3,0,0,1,1.85-1.34,3.54,3.54,0,0,1,1.17,0,3.22,3.22,0,0,1,1.08.41,3,3,0,0,1,1.32,1.86,2.78,2.78,0,0,1,0,1.15,2.81,2.81,0,0,1-.4,1.09A3,3,0,0,1,153.09,160.74Zm0-.05a2.75,2.75,0,0,0,1.76-1.32,2.65,2.65,0,0,0,.31-1.06,2.71,2.71,0,0,0-1.4-2.61,2.76,2.76,0,0,0-1.91-.26,2.69,2.69,0,0,0-1.59,1.08,2.67,2.67,0,0,0-.45,1.95,2.75,2.75,0,0,0,1.12,1.81,2.93,2.93,0,0,0,1,.43A3.3,3.3,0,0,0,153.08,160.69Z"/><path d="M167.92,120.11h0a3.5,3.5,0,1,0,2.38.29,25.89,25.89,0,0,1,12.87.43.44.44,0,0,0,.55-.3h0a.46.46,0,0,0-.31-.56A27,27,0,0,0,167.92,120.11Zm3.33,2.81a2.6,2.6,0,1,1-1.94-1.94A2.58,2.58,0,0,1,171.25,122.92Z"/><path d="M167.94,120.12h0v0a3.52,3.52,0,0,0-2,1.29,3.47,3.47,0,0,0,.25,4.44,3.43,3.43,0,0,0,4.41.54,3.45,3.45,0,0,0-.32-6l-.1,0,.11,0a25.9,25.9,0,0,1,11.22,0l.92.22.45.12a2,2,0,0,0,.45.1.42.42,0,0,0,.33-.24.4.4,0,0,0,0-.41c-.08-.13-.23-.16-.39-.2l-.45-.12a27.15,27.15,0,0,0-7.45-.9A28.38,28.38,0,0,0,167.94,120.12Zm0,0a27.79,27.79,0,0,1,7.43-1.29,27.33,27.33,0,0,1,7.53.73l.46.11.11,0,.06,0a.32.32,0,0,1,.09,0,.69.69,0,0,1,.3.23.77.77,0,0,1,.1.75.79.79,0,0,1-.62.45,1.08,1.08,0,0,1-.35,0l-.22-.06-.45-.11-.91-.2a25.26,25.26,0,0,0-3.68-.51,28.16,28.16,0,0,0-7.38.51l.09-.66a3.77,3.77,0,0,1,1.85,4.52,3.86,3.86,0,0,1-1.57,2,3.65,3.65,0,0,1-5.58-2.91,3.51,3.51,0,0,1,.73-2.31,3.58,3.58,0,0,1,2-1.3l0,0Z"/><path d="M171.27,122.91a3,3,0,0,1,0,1,3,3,0,0,1-.36,1,2.61,2.61,0,0,1-1.64,1.17,2.68,2.68,0,0,1-2-.31,2.6,2.6,0,0,1-1.18-1.64,2.75,2.75,0,0,1,0-1,2.85,2.85,0,0,1,.36-1,2.67,2.67,0,0,1,1.65-1.17,2.5,2.5,0,0,1,1,0,2.39,2.39,0,0,1,1,.36A2.59,2.59,0,0,1,171.27,122.91Zm0,0a2.46,2.46,0,0,0-1.18-1.56,2.22,2.22,0,0,0-.93-.27,2.32,2.32,0,0,0-1,.1,2.36,2.36,0,0,0-1.37,1.14,2.43,2.43,0,0,0-.23,1.69,2.4,2.4,0,0,0,1.76,1.78,2.24,2.24,0,0,0,.93,0,2.4,2.4,0,0,0,1.6-1,2.45,2.45,0,0,0,.38-.91A2.85,2.85,0,0,0,171.23,122.92Z"/><path d="M181.15,129.85h0a3.5,3.5,0,0,0,2.69-3.69,3.5,3.5,0,0,0-7,.29,3.51,3.51,0,0,0,1.91,3.11,25.89,25.89,0,0,1-12.87-.43.44.44,0,0,0-.55.3h0a.46.46,0,0,0,.31.56A27,27,0,0,0,181.15,129.85ZM177.82,127a2.61,2.61,0,0,1,3.13-3.13,2.58,2.58,0,0,1,1.94,1.94,2.61,2.61,0,0,1-3.13,3.13A2.56,2.56,0,0,1,177.82,127Z"/><path d="M181.13,129.84h0v0a3.52,3.52,0,0,0,2-1.29,3.43,3.43,0,0,0,.68-2.27,3.39,3.39,0,0,0-.94-2.17,3.42,3.42,0,0,0-4.4-.54,3.44,3.44,0,0,0-1.42,1.89,3.45,3.45,0,0,0,1.74,4.08l.1,0-.11,0a25.86,25.86,0,0,1-11.22,0l-.92-.22-.46-.12a1.47,1.47,0,0,0-.44-.1.4.4,0,0,0-.29.65c.08.13.23.16.39.2l.45.12a27.15,27.15,0,0,0,7.45.9A28.38,28.38,0,0,0,181.13,129.84Zm0,0a27.79,27.79,0,0,1-7.43,1.29,27.33,27.33,0,0,1-7.53-.73l-.46-.11-.11,0-.06,0a.32.32,0,0,1-.09,0,.79.79,0,0,1-.31-.23.8.8,0,0,1-.09-.75.79.79,0,0,1,.62-.45,1,1,0,0,1,.34,0l.23.06.45.11.91.2a25.26,25.26,0,0,0,3.68.51,28.16,28.16,0,0,0,7.38-.51l-.09.66a3.77,3.77,0,0,1-1.85-4.52,3.81,3.81,0,0,1,1.57-2,3.65,3.65,0,0,1,5.58,2.91,3.51,3.51,0,0,1-.73,2.31,3.58,3.58,0,0,1-2,1.3l0,0Z"/><path d="M177.8,127.05a3,3,0,0,1,0-1,2.8,2.8,0,0,1,.36-1,2.61,2.61,0,0,1,1.64-1.17,2.68,2.68,0,0,1,2,.31,2.6,2.6,0,0,1,1.18,1.64,2.75,2.75,0,0,1,0,1,2.85,2.85,0,0,1-.36,1A2.67,2.67,0,0,1,181,129a2.5,2.5,0,0,1-1,0,2.39,2.39,0,0,1-1-.36A2.59,2.59,0,0,1,177.8,127.05Zm0,0A2.46,2.46,0,0,0,179,128.6a2.22,2.22,0,0,0,.93.27,2.32,2.32,0,0,0,1-.1,2.36,2.36,0,0,0,1.37-1.14,2.43,2.43,0,0,0,.23-1.69,2.36,2.36,0,0,0-.95-1.41,2.34,2.34,0,0,0-1.74-.4,2.4,2.4,0,0,0-1.6,1,2.64,2.64,0,0,0-.39.91A3.12,3.12,0,0,0,177.84,127Z"/><path d="M180.82,102c-1-.21-2-.38-3-.5a.41.41,0,0,1-.35-.4V88a.41.41,0,0,1,.35-.4c1-.12,2-.29,3-.5l.48-.11-.12-.56a.41.41,0,0,0-.48-.31h0a34.41,34.41,0,0,1-14.43,0h0a.4.4,0,0,0-.47.31l-.12.56.47.11c1,.21,2,.38,3,.5a.42.42,0,0,1,.36.4v13.12a.42.42,0,0,1-.36.4c-1,.12-2,.29-3,.5l-.47.11.12.56a.4.4,0,0,0,.47.31h0a34.41,34.41,0,0,1,14.43,0h0a.41.41,0,0,0,.48-.31l.12-.56Zm-10.34-1.07V88.13a.4.4,0,0,1,.43-.4c.86.07,1.72.11,2.58.11s1.71,0,2.57-.11a.4.4,0,0,1,.43.4v12.78a.4.4,0,0,1-.43.4,34.05,34.05,0,0,0-5.15,0A.4.4,0,0,1,170.48,100.91Z"/><path d="M180.81,102l-2.57-.43-.33,0a.79.79,0,0,1-.32-.1.44.44,0,0,1-.18-.29c0-.11,0-.22,0-.33V88.07a.66.66,0,0,1,.06-.34.5.5,0,0,1,.29-.2l.32,0,.65-.11c.85-.15,1.72-.27,2.57-.45l0,0c-.1-.31,0-.79-.42-.84a10.14,10.14,0,0,0-1,.18c-.69.13-1.39.24-2.09.32a33.37,33.37,0,0,1-4.23.27,35.06,35.06,0,0,1-4.23-.26c-.71-.08-1.4-.2-2.1-.32-.34-.06-.71-.16-1-.18s-.31.51-.41.83l0-.06c.87.19,1.75.31,2.63.47l.66.11a1.47,1.47,0,0,1,.34.07.46.46,0,0,1,.24.27c.05.47,0,.9,0,1.35v10.7c0,.45,0,.88,0,1.35a.39.39,0,0,1-.24.26,1.51,1.51,0,0,1-.33.07l-.66.11c-.88.16-1.76.27-2.64.46l0,0,.11.52a.38.38,0,0,0,.31.33,9.75,9.75,0,0,0,1-.19c.7-.12,1.39-.23,2.1-.32a33.81,33.81,0,0,1,8.45,0c.71.08,1.4.2,2.1.32a9.75,9.75,0,0,0,1,.19.39.39,0,0,0,.32-.34l.11-.52,0,0Zm0-.05.48.1h0v0l-.1.52a.46.46,0,0,1-.37.39,8.51,8.51,0,0,1-1-.18c-.7-.12-1.4-.23-2.1-.31a34.94,34.94,0,0,0-4.21-.23,31.14,31.14,0,0,0-4.21.31c-.7.1-1.39.22-2.08.36l-.51.11-.26.06-.14,0h-.19a.6.6,0,0,1-.51-.5l-.12-.52,0-.2.2-.05c.87-.2,1.76-.33,2.64-.51l.67-.12c.28,0,.28,0,.31-.13s0,0,0-.08V99.87l-.09-5.35,0-5.35V88c.22.07-.46-.06-.86-.12-.89-.16-1.8-.26-2.67-.46l-.44-.09.1-.44.11-.52a.85.85,0,0,1,.07-.22,1.14,1.14,0,0,1,.15-.23.89.89,0,0,1,.49-.25,1.31,1.31,0,0,1,.28,0l.14,0,.26.06.51.1c.68.13,1.37.25,2.06.33a34.4,34.4,0,0,0,4.18.29,41.77,41.77,0,0,0,4.18-.2c.7-.08,1.39-.18,2.08-.29l.51-.09.26-.05.14,0a.45.45,0,0,1,.23,0,.65.65,0,0,1,.39.21.57.57,0,0,1,.12.18,1.83,1.83,0,0,1,.06.19l.1.52.05.26-.26.06c-.85.17-1.73.27-2.6.41l-.65.1-.3,0a.2.2,0,0,0-.13.09c-.06,0,0,.33,0,.53v.66l-.09,5.23,0,5.22v1.31c0,.11,0,.23,0,.32a.32.32,0,0,0,.14.24.82.82,0,0,0,.29.09l.33.05Z"/><path d="M170.46,100.91l0-9.62v-3a.82.82,0,0,1,0-.31.43.43,0,0,1,.22-.24.59.59,0,0,1,.32,0h.3l.6,0a21.35,21.35,0,0,0,2.4,0l1.2,0,.61,0a.46.46,0,0,1,.42.45v12.63a.66.66,0,0,1,0,.31.43.43,0,0,1-.21.23.59.59,0,0,1-.32,0l-.3,0-.6,0q-1.2,0-2.4,0l-1.2,0-.6,0A.43.43,0,0,1,170.46,100.91Zm0,0a.37.37,0,0,0,.35.37l.6,0c.4,0,.8-.06,1.2-.07.8,0,1.61,0,2.41,0l.6,0c.2,0,.43,0,.54,0a.29.29,0,0,0,.13-.16.3.3,0,0,0,0-.1v-.15l0-.6-.08-2.41-.15-4.81L176,88.13s0,.05.05,0l-.55,0-1.22,0a19.72,19.72,0,0,1-2.43-.06l-.61,0-.42,0a0,0,0,0,0,0,0s0,0,0,0v.15l0,.6-.08,2.41-.15,4.81Z"/><path d="M163.28,56.48A2.3,2.3,0,0,0,161.09,58a7.65,7.65,0,0,1-.59,1.28,2.74,2.74,0,0,1-4.7,0,8.13,8.13,0,0,1-.59-1.29A2.32,2.32,0,0,0,153,56.48h-2a.48.48,0,0,0-.48.47h0a.48.48,0,0,0,.48.48h2a1.39,1.39,0,0,1,1.31,1,6.79,6.79,0,0,0,1.28,2.26.79.79,0,0,1-.19,1.19,5.12,5.12,0,1,0,5.46,0,.79.79,0,0,1-.19-1.19A6.79,6.79,0,0,0,162,58.38a1.39,1.39,0,0,1,1.31-1h2a.47.47,0,0,0,.47-.48h0a.47.47,0,0,0-.47-.47Zm-1,8.86A4.18,4.18,0,1,1,159,62.06,4.19,4.19,0,0,1,162.25,65.34Z"/><path d="M163.28,56.51a2.3,2.3,0,0,0-1.72.77,2.27,2.27,0,0,0-.48.84,8,8,0,0,1-.39.91,2.83,2.83,0,0,1-1.37,1.38,2.76,2.76,0,0,1-1.94.15,2.71,2.71,0,0,1-1.56-1.16,5.51,5.51,0,0,1-.45-.87,8.27,8.27,0,0,0-.38-.91,2.28,2.28,0,0,0-1.55-1.06,5.32,5.32,0,0,0-1,0H151a.44.44,0,0,0-.32.68.44.44,0,0,0,.39.19h2a1.42,1.42,0,0,1,.92.35,1.85,1.85,0,0,1,.51.86,6.77,6.77,0,0,0,.93,1.71c.1.13.21.24.32.38a.76.76,0,0,1,.14.49.86.86,0,0,1-.18.48,1.62,1.62,0,0,1-.38.32,5.06,5.06,0,0,0-.08,8.31,5.08,5.08,0,0,0,8-4.72,5.11,5.11,0,0,0-1.84-3.35,4,4,0,0,0-.39-.29,1.05,1.05,0,0,1-.37-.33.81.81,0,0,1,0-1A6.28,6.28,0,0,0,161.69,59c.14-.3.21-.62.38-.91a1.47,1.47,0,0,1,.77-.62,3.31,3.31,0,0,1,1-.07h1.47a.45.45,0,0,0,.37-.25.44.44,0,0,0,0-.44.43.43,0,0,0-.39-.2Zm0,0,2,0a.53.53,0,0,1,.49.75.53.53,0,0,1-.43.29h-1.48a3.34,3.34,0,0,0-1,.08,1.36,1.36,0,0,0-.7.57c-.15.27-.23.61-.37.9a6.86,6.86,0,0,1-1,1.7.65.65,0,0,0,0,.77,1.14,1.14,0,0,0,.33.27c.15.09.28.19.42.29a5.33,5.33,0,0,1,2,3.46,5.48,5.48,0,0,1-1,3.93,5.45,5.45,0,0,1-7.53,1.21,5.45,5.45,0,0,1-1.41-7.57,5.45,5.45,0,0,1,1.5-1.49l.19-.14a.39.39,0,0,0,.1-.08.5.5,0,0,0,.09-.23.4.4,0,0,0-.06-.22l-.14-.16-.16-.21a6.72,6.72,0,0,1-1-1.83L154,58.5a.87.87,0,0,0-.07-.17,1,1,0,0,0-.23-.3,1,1,0,0,0-.68-.28l-2,0a.76.76,0,0,1-.65-.34.73.73,0,0,1,0-.73.74.74,0,0,1,.6-.41h.51l1,0h.5a2.37,2.37,0,0,1,.52.06,2.43,2.43,0,0,1,1.67,1.2,2.18,2.18,0,0,1,.21.47c0,.16.11.31.17.46a5.7,5.7,0,0,0,.42.86,2.53,2.53,0,0,0,1.47,1.13,2.66,2.66,0,0,0,1.86-.13A2.79,2.79,0,0,0,160.62,59a7.19,7.19,0,0,0,.39-.9,2.34,2.34,0,0,1,.5-.86A2.38,2.38,0,0,1,163.28,56.46Z"/><path d="M162.27,65.34a4.75,4.75,0,0,1,0,1.64,4.18,4.18,0,0,1-.63,1.51,4.23,4.23,0,0,1-2.67,1.8,4.81,4.81,0,0,1-1.65,0,4.23,4.23,0,0,1-1.52-.63A4.28,4.28,0,0,1,154,67a4.81,4.81,0,0,1,0-1.65A4.26,4.26,0,0,1,157.33,62,4.52,4.52,0,0,1,159,62a4,4,0,0,1,1.52.63A4.19,4.19,0,0,1,162.27,65.34Zm-.05,0a4.09,4.09,0,0,0-1.8-2.58,3.68,3.68,0,0,0-1.48-.54,4.3,4.3,0,0,0-1.56.08,3.94,3.94,0,1,0,4.16,6.12,4.09,4.09,0,0,0,.65-1.46A4.64,4.64,0,0,0,162.22,65.34Z"/><path d="M134.49,39.06a4,4,0,0,0-4.7-.54,3.4,3.4,0,0,0-1.18,1.14.5.5,0,0,1-.84,0,3.47,3.47,0,0,0-2-1.5,4,4,0,0,0-3.75.7,4,4,0,0,0-1.18,4.36.5.5,0,0,0,.71.26h0a.5.5,0,0,0,.24-.61,2.91,2.91,0,0,1,3.68-3.75,2.84,2.84,0,0,1,1.9,2.21,7.34,7.34,0,0,1,.27,2.06v9.69a.5.5,0,0,0,.51.5h0a.5.5,0,0,0,.5-.5V43.42c0-1.37.28-3.26,1.61-4a3,3,0,0,1,3.51.4,2.94,2.94,0,0,1,.74,3.12.49.49,0,0,0,.23.6h0a.51.51,0,0,0,.72-.27A4,4,0,0,0,134.49,39.06Z"/><path d="M134.47,39.08a4,4,0,0,0-4.11-.8,3.48,3.48,0,0,0-1.7,1.35.57.57,0,0,1-.46.3.52.52,0,0,1-.49-.27,3.36,3.36,0,0,0-.73-.82,4,4,0,0,0-4.16-.41,3.91,3.91,0,0,0-2,4.66.52.52,0,0,0,.3.41.46.46,0,0,0,.48-.07.47.47,0,0,0,.15-.46,4.75,4.75,0,0,1-.14-.54,3,3,0,0,1,0-1.12,3,3,0,0,1,1.21-1.84A3,3,0,0,1,125,39a2.7,2.7,0,0,1,1.87,1.13,5.29,5.29,0,0,1,.74,2.1,15.12,15.12,0,0,1,.08,2.23v8.32a1.51,1.51,0,0,0,0,.53.46.46,0,0,0,.4.27.48.48,0,0,0,.42-.24,1.14,1.14,0,0,0,.06-.53V43.36a7.8,7.8,0,0,1,.31-2.2,3.18,3.18,0,0,1,1.29-1.78,3.11,3.11,0,0,1,2.17-.35,2.91,2.91,0,0,1,1.82,1.22,3,3,0,0,1,.47,2.14,2.69,2.69,0,0,1-.14.54.46.46,0,0,0,.12.48.49.49,0,0,0,.49.11.51.51,0,0,0,.32-.39A3.9,3.9,0,0,0,134.47,39.08Zm0,0a4,4,0,0,1,1.06,4.12.58.58,0,0,1-.38.44.57.57,0,0,1-.57-.12.55.55,0,0,1-.15-.58,2.56,2.56,0,0,0,.13-.53,2.8,2.8,0,0,0-4.26-2.82,2.91,2.91,0,0,0-1.16,1.69,7.19,7.19,0,0,0-.26,2.13l.15,8.88v.83a1,1,0,0,1-.11.46.91.91,0,0,1-1.62,0,.84.84,0,0,1-.07-.24.74.74,0,0,1,0-.2V51.11l0-4.44,0-2.22V43.34a9.26,9.26,0,0,0-.07-1.05,4.81,4.81,0,0,0-.65-1.91,2.2,2.2,0,0,0-1.57-1,2.54,2.54,0,0,0-2.94,2,2.74,2.74,0,0,0,0,1c0,.08,0,.16,0,.24l.08.28a.78.78,0,0,1-1.07.89.79.79,0,0,1-.33-.27.82.82,0,0,1-.09-.19l0-.14a4.17,4.17,0,0,1-.17-1.16,4.11,4.11,0,0,1,2.33-3.76,4.19,4.19,0,0,1,4.32.49,3.81,3.81,0,0,1,.75.85.43.43,0,0,0,.77,0,3.59,3.59,0,0,1,1.75-1.37A4.1,4.1,0,0,1,134.51,39Z"/><path d="M65.64,63.38l-.17,0a.53.53,0,0,1-.3-.29l-.75-1.82a.5.5,0,0,0-.7-.26l-3.37,1.77A1,1,0,0,1,59,62.37l-.68-1.2a.51.51,0,0,0-.69-.18l-3.46,2.06a.49.49,0,0,1-.69-.17h0a.5.5,0,0,1,.17-.69L58,59.6a.46.46,0,0,1,.38-.05.52.52,0,0,1,.31.23l.94,1.67a.52.52,0,0,0,.68.2l3.91-2.06a.47.47,0,0,1,.4,0,.52.52,0,0,1,.3.28l.73,1.79a.51.51,0,0,0,.72.24l4-2.27a.49.49,0,0,1,.39-.05.48.48,0,0,1,.31.26l1.2,2.4a.5.5,0,0,1-.23.67h0a.5.5,0,0,1-.67-.22l-.72-1.45A.51.51,0,0,0,69.9,61l-4,2.32A.57.57,0,0,1,65.64,63.38Z"/><path d="M65.64,63.41a.58.58,0,0,1-.38-.15,1.09,1.09,0,0,1-.19-.35l-.31-.72-.3-.72a1.28,1.28,0,0,0-.17-.33A.46.46,0,0,0,64,61a.57.57,0,0,0-.34.11l-.34.19-.69.37-1.38.74-.69.38a1.29,1.29,0,0,1-.8.21,1.13,1.13,0,0,1-.76-.42c-.17-.24-.28-.45-.42-.68l-.4-.65a.32.32,0,0,0-.45-.06L56.39,62l-1.32.84-.67.42-.09,0-.14.07a.8.8,0,0,1-.31,0,.82.82,0,0,1-.5-1.43l.13-.1.08,0,.17-.11.33-.2,1.32-.84,1.34-.81.67-.41.33-.2a1.25,1.25,0,0,1,.28-.13.82.82,0,0,1,.35,0,.94.94,0,0,1,.62.34.61.61,0,0,1,.1.14l.05.08.09.17.4.68.39.67a.16.16,0,0,1,0,.05h.07l2.76-1.42.7-.36.34-.18.09,0,.05,0,.07,0a1,1,0,0,1,.35-.07.91.91,0,0,1,.64.27.81.81,0,0,1,.19.29l.08.18.29.73.29.73.06.17s0,0,0,0a.11.11,0,0,0,.09,0s.05,0,.2-.08l.34-.19.69-.37,2.75-1.5.21-.1a.9.9,0,0,1,.28,0,.72.72,0,0,1,.5.24,1.46,1.46,0,0,1,.22.39l.17.36.67,1.41.16.36a.69.69,0,0,1,.09.46.63.63,0,0,1-.71.53.58.58,0,0,1-.4-.24,1.86,1.86,0,0,1-.19-.37l-.34-.7-.17-.36a.69.69,0,0,0-.2-.29.47.47,0,0,0-.31-.08,1.18,1.18,0,0,0-.33.15l-1.36.77L67,62.7l-.69.39-.34.19A.69.69,0,0,1,65.64,63.41Zm0,0a.72.72,0,0,0,.35-.13l.33-.2.68-.39,1.36-.78,1.35-.78a1.14,1.14,0,0,1,.37-.17.51.51,0,0,1,.39.1.66.66,0,0,1,.23.32l.18.35.35.7a2.16,2.16,0,0,0,.18.34.47.47,0,0,0,.31.18.48.48,0,0,0,.52-.4.58.58,0,0,0-.08-.36L72,61.79l-.7-1.4a7.3,7.3,0,0,0-.36-.68.49.49,0,0,0-.67,0l-2.71,1.56-.68.39-.34.2a.79.79,0,0,1-.38.14.58.58,0,0,1-.39-.15.86.86,0,0,1-.19-.35l-.3-.72L65,60a1,1,0,0,0-.18-.32.39.39,0,0,0-.32-.13.59.59,0,0,0-.34.12l-.35.18-.69.37-2.77,1.46a.57.57,0,0,1-.73-.27l-.39-.68-.38-.69c-.07-.1-.13-.23-.19-.33a.47.47,0,0,0-.31-.16.49.49,0,0,0-.34.1l-.34.2-.67.4-1.34.8-1.35.8c-.22.13-.46.26-.66.4a.47.47,0,0,0,.62.7l.67-.4,1.35-.8L57.59,61a.56.56,0,0,1,.75.14l.39.69c.13.22.25.46.39.67a1,1,0,0,0,.64.37,1.1,1.1,0,0,0,.72-.18l.7-.37,1.38-.72.69-.37L63.6,61a.66.66,0,0,1,.39-.11.51.51,0,0,1,.36.17,1.73,1.73,0,0,1,.18.36l.29.72.3.73a1,1,0,0,0,.18.33A.52.52,0,0,0,65.64,63.36Z"/><path d="M65.64,68.14a.51.51,0,0,1-.17,0,.52.52,0,0,1-.3-.28L64.42,66a.5.5,0,0,0-.7-.25l-3.37,1.77A1,1,0,0,1,59,67.13l-.68-1.2a.5.5,0,0,0-.69-.18l-3.46,2.06a.5.5,0,0,1-.69-.17h0a.5.5,0,0,1,.17-.69L58,64.36a.5.5,0,0,1,.38-.06.53.53,0,0,1,.31.24l.94,1.67a.51.51,0,0,0,.68.19l3.91-2.06a.51.51,0,0,1,.4,0,.49.49,0,0,1,.3.28l.73,1.78a.51.51,0,0,0,.72.25l4-2.28a.48.48,0,0,1,.39,0,.49.49,0,0,1,.31.25l1.2,2.4a.51.51,0,0,1-.23.68h0a.5.5,0,0,1-.67-.23L70.61,66a.51.51,0,0,0-.71-.21l-4,2.31A.47.47,0,0,1,65.64,68.14Z"/><path d="M65.64,68.16a.54.54,0,0,1-.38-.15.92.92,0,0,1-.19-.35l-.31-.72-.3-.72a1.28,1.28,0,0,0-.17-.33.41.41,0,0,0-.31-.14.57.57,0,0,0-.34.11L63.3,66l-.69.37-1.38.75-.69.37a1.17,1.17,0,0,1-.8.21,1.15,1.15,0,0,1-.76-.41c-.17-.24-.28-.45-.42-.68l-.4-.66a.33.33,0,0,0-.45-.06l-1.32.84-1.32.83L54.4,68l-.09.06a.59.59,0,0,1-.14.06.81.81,0,0,1-.31,0,.82.82,0,0,1-.5-1.43l.13-.1.08-.06.17-.1.33-.21,1.32-.83,1.34-.81.67-.41.33-.21A1.25,1.25,0,0,1,58,63.9a1,1,0,0,1,.35,0,1,1,0,0,1,.72.47l.05.09.09.17.4.67L60,66l0,0h.07l2.76-1.41.7-.36.34-.18L64,64,64,64l.07,0a.84.84,0,0,1,.35-.07.94.94,0,0,1,.64.26.91.91,0,0,1,.19.29l.08.19.29.73.29.73.06.17s0,0,0,0a.13.13,0,0,0,.09,0s.05,0,.2-.08l.34-.19.69-.37,2.75-1.5a1,1,0,0,1,.21-.1.68.68,0,0,1,.28,0,.71.71,0,0,1,.5.23,1.49,1.49,0,0,1,.22.4l.17.35.67,1.42.16.36a.69.69,0,0,1,.09.46.64.64,0,0,1-.71.53.66.66,0,0,1-.4-.24,2.62,2.62,0,0,1-.19-.37l-.34-.71-.17-.35a.63.63,0,0,0-.2-.29.38.38,0,0,0-.31-.08,1.18,1.18,0,0,0-.33.15l-1.36.77L67,67.46l-.69.38L66,68A.62.62,0,0,1,65.64,68.16Zm0,0A.7.7,0,0,0,66,68l.33-.2L67,67.4l1.36-.78,1.35-.79a1,1,0,0,1,.37-.16.5.5,0,0,1,.39.09.74.74,0,0,1,.23.33l.18.35.35.7a3.65,3.65,0,0,0,.18.34.46.46,0,0,0,.31.17.47.47,0,0,0,.52-.4.55.55,0,0,0-.08-.35L72,66.55l-.7-1.4a5.43,5.43,0,0,0-.36-.68.49.49,0,0,0-.67,0L67.54,66l-.68.39-.34.19a.71.71,0,0,1-.38.15.58.58,0,0,1-.39-.15.93.93,0,0,1-.19-.35l-.3-.73-.3-.72a1,1,0,0,0-.18-.33.46.46,0,0,0-.32-.13.78.78,0,0,0-.34.12l-.35.19-.69.36-2.77,1.46a.56.56,0,0,1-.73-.27l-.39-.68-.38-.68c-.07-.11-.13-.24-.19-.33a.47.47,0,0,0-.31-.16.48.48,0,0,0-.34.09l-.34.2L57,65l-1.34.8-1.35.8c-.22.14-.46.27-.66.41a.47.47,0,0,0,0,.64.48.48,0,0,0,.66,0l.67-.4,1.35-.8,1.34-.8a.55.55,0,0,1,.75.14l.39.68c.13.23.25.47.39.68a1,1,0,0,0,.64.36,1,1,0,0,0,.72-.18l.7-.36,1.38-.73.7-.36.34-.18a.67.67,0,0,1,.39-.12.52.52,0,0,1,.36.18,1.66,1.66,0,0,1,.18.35l.29.73.3.72a1.22,1.22,0,0,0,.18.34A.51.51,0,0,0,65.64,68.11Z"/><path d="M50.51,96a3.31,3.31,0,0,0-1.77.64.22.22,0,0,1-.34-.17V87.68a1.54,1.54,0,0,0-.51-1.11,3,3,0,0,0-2.16-.71A5.74,5.74,0,0,0,42,87.29a.36.36,0,0,1-.52,0,3.13,3.13,0,0,0-1.84-1.13.51.51,0,0,0-.62.49h0a.51.51,0,0,0,.42.49,2.15,2.15,0,0,1,1.72,2.1v10a.5.5,0,0,0,.5.5h0a.5.5,0,0,0,.5-.5v-10h0a1.79,1.79,0,0,1,.47-1.12,4.73,4.73,0,0,1,3.1-1.21,2,2,0,0,1,1.43.44.57.57,0,0,1,.2.38V99.75a2.14,2.14,0,0,1-2.14,2.14H45a.51.51,0,0,0-.51.5h0a.51.51,0,0,0,.51.51h.29a3.13,3.13,0,0,0,2.6-1.4.27.27,0,0,1,.42,0,3.25,3.25,0,0,0,2.4,1A3.29,3.29,0,0,0,54,99.18,3.32,3.32,0,0,0,50.51,96Zm.79,5.48a2.29,2.29,0,1,1,1.59-1.58A2.25,2.25,0,0,1,51.3,101.43Z"/><path d="M50.51,96a3.2,3.2,0,0,0-1.32.35l-.29.18-.14.1a.25.25,0,0,1-.39-.24V87.71a1.52,1.52,0,0,0-.58-1.18A2.54,2.54,0,0,0,46.56,86a3.88,3.88,0,0,0-1.36,0,5.56,5.56,0,0,0-1.34.31,5.46,5.46,0,0,0-1.23.62,4.43,4.43,0,0,0-.54.43.44.44,0,0,1-.35.12.54.54,0,0,1-.3-.21,3.22,3.22,0,0,0-1.07-.83,3.83,3.83,0,0,0-.65-.22.5.5,0,0,0-.56.22.46.46,0,0,0,.1.58.62.62,0,0,0,.3.12l.34.11a2.24,2.24,0,0,1,1,.91,2.41,2.41,0,0,1,.3,1.36v9.7a.49.49,0,0,0,.29.52.45.45,0,0,0,.55-.19c.12-.17.06-.42.08-.65v-9.7a1.66,1.66,0,0,1,.19-.69,1.55,1.55,0,0,1,.44-.55,4.49,4.49,0,0,1,.57-.4A5.15,5.15,0,0,1,46,86.82a1.84,1.84,0,0,1,1.28.54.55.55,0,0,1,.12.35V99.84a2.17,2.17,0,0,1-.49,1.29,2.23,2.23,0,0,1-1.18.74,3.16,3.16,0,0,1-.69.06.5.5,0,0,0-.54.29.46.46,0,0,0,.18.56c.18.13.43.07.66.08a3.09,3.09,0,0,0,2.35-1.22c.08-.08.12-.2.25-.26a.29.29,0,0,1,.35.08,3.1,3.1,0,0,0,.51.45,3.27,3.27,0,0,0,3.85-.11,3.2,3.2,0,0,0,1.25-2.35A3.29,3.29,0,0,0,50.51,96Zm0,0a3.33,3.33,0,0,1,2.23,5.95,3.37,3.37,0,0,1-2.67.67,3.42,3.42,0,0,1-1.31-.53,4.06,4.06,0,0,1-.55-.46.16.16,0,0,0-.19,0,.19.19,0,0,0-.07.08l-.11.15a3.24,3.24,0,0,1-2.47,1.31H45a.68.68,0,0,1-.68-.93.71.71,0,0,1,.3-.34.9.9,0,0,1,.43-.09,2.63,2.63,0,0,0,.64-.06,1.94,1.94,0,0,0,1-.67,1.85,1.85,0,0,0,.41-1.14L47,88.75V87.69h0s0,0,0,0a1.38,1.38,0,0,0-1-.37,4.39,4.39,0,0,0-2.92,1l-.11.11-.08.08a1.93,1.93,0,0,0-.13.21,1.37,1.37,0,0,0-.13.5V92.6l0,5.55v1a1.49,1.49,0,0,1,0,.26,1.08,1.08,0,0,1-.13.29.92.92,0,0,1-1.1.36,1,1,0,0,1-.47-.4,1.18,1.18,0,0,1-.1-.3.81.81,0,0,1,0-.15v-.09l0-2.77.07-5.55,0-1.38a3.09,3.09,0,0,0,0-.63,2,2,0,0,0-.21-.57,1.83,1.83,0,0,0-.88-.79,1.42,1.42,0,0,0-.29-.1l-.08,0-.12,0a.75.75,0,0,1-.37-1.07.77.77,0,0,1,.86-.34,3.66,3.66,0,0,1,.7.25,3.38,3.38,0,0,1,1.14.91l.09.1.07,0a.2.2,0,0,0,.16-.06,4.81,4.81,0,0,1,.57-.44,5.6,5.6,0,0,1,1.28-.62,6.09,6.09,0,0,1,1.38-.3,4.23,4.23,0,0,1,1.42,0,2.77,2.77,0,0,1,1.29.62,1.69,1.69,0,0,1,.61,1.28l0,5.54,0,2.77v.35a.18.18,0,0,0,.14.22c.1,0,.18-.07.28-.13a3.14,3.14,0,0,1,.31-.18A3.25,3.25,0,0,1,50.51,95.93Z"/><path d="M51.31,101.46a2.32,2.32,0,0,1-2.86-1.6,2.37,2.37,0,0,1,.2-1.77A2.32,2.32,0,0,1,50.05,97a2.34,2.34,0,0,1,2.66,3.39A2.28,2.28,0,0,1,51.31,101.46Zm0,0a2.1,2.1,0,0,0,1.31-1.09,2.17,2.17,0,0,0,0-1.64,2.06,2.06,0,0,0-.42-.66,2.16,2.16,0,0,0-.62-.43,2.08,2.08,0,0,0-1.43-.12,2,2,0,0,0-1.46,2.31,2,2,0,0,0,1.7,1.68A2.61,2.61,0,0,0,51.3,101.41Z"/><circle class="cls-3" cx="95" cy="44.88" r="13.04"/><circle class="cls-3" cx="128.15" cy="45.41" r="13.04"/><circle class="cls-3" cx="158.2" cy="62.83" r="13.04"/><circle class="cls-3" cx="44.96" cy="94.36" r="13.04"/><circle class="cls-3" cx="62.82" cy="64" r="13.04"/><circle class="cls-3" cx="46.48" cy="128.35" r="13.04"/><circle class="cls-3" cx="65.04" cy="156.43" r="13.04"/><circle class="cls-3" cx="93.51" cy="175.12" r="13.04"/><circle class="cls-3" cx="128.15" cy="172.77" r="13.04"/><circle class="cls-3" cx="156.85" cy="154.61" r="13.04"/><circle class="cls-3" cx="175.04" cy="125.33" r="13.04"/><circle class="cls-3" cx="173.83" cy="93.67" r="13.04"/><path class="cls-3" d="M84.42,52.49a63.37,63.37,0,0,0-10,5.57"/><path class="cls-3" d="M146.09,58a62.42,62.42,0,0,0-7.73-4.48"/><path class="cls-3" d="M174,106.71c.1,1.37.14,2.74.14,4.13,0,.5,0,1,0,1.5"/><path class="cls-3" d="M147,163.09a62.29,62.29,0,0,1-6.95,4.24"/><path class="cls-3" d="M82.43,168.25a60.72,60.72,0,0,1-7-4"/><path class="cls-3" d="M46.65,115.31c-.11-1.48-.16-3-.16-4.47,0-1.19,0-2.37.1-3.55"/><path class="cls-3" d="M57,75.68a62.48,62.48,0,0,0-4.53,8.07"/><path class="cls-3" d="M57.1,146.09a64.42,64.42,0,0,1-3.83-6.6"/><path class="cls-3" d="M106.53,174.54c1.25.07,2.5.11,3.77.11,1.66,0,3.3-.06,4.92-.19"/><path class="cls-3" d="M168.66,136.7a62.39,62.39,0,0,1-3.95,7.51"/><path class="cls-3" d="M167.41,82.33a62.83,62.83,0,0,0-4.34-7.4"/><path class="cls-3" d="M107.85,47.07c.81,0,1.63,0,2.45,0,1.66,0,3.31.06,4.94.19"/></svg>