<svg xmlns="http://www.w3.org/2000/svg" viewBox="0 0 220 220"><defs><style>.cls-1,.cls-2,.cls-3{fill:none;stroke-miterlimit:10;}.cls-1{stroke:#f27121;stroke-width:2px;}.cls-2,.cls-3{stroke:#000;}.cls-2{stroke-width:1.92px;}.cls-3{stroke-width:1.79px;}.cls-4{font-size:9px;}.cls-4,.cls-5{font-family:Poppins-Bold, Poppins;font-weight:700;}.cls-5{font-size:9.83px;}</style></defs><g id="Layer_2" data-name="Layer 2"><rect class="cls-1" x="52.5" y="61.11" width="116.94" height="90.22" rx="4.69" transform="translate(1.84 -1.89) rotate(0.98)"/><path class="cls-1" d="M52.51,105.22s8.16-.92,17.16-11C74.18,88.75,87.09,88,87.09,88s-.4-6.11,13.32-14.53c4-2.65,11.21-8.68,11.34-12.22"/><path class="cls-1" d="M169.44,107.23s-8.13-1.2-16.78-11.53c-4.31-5.68-17.19-6.91-17.19-6.91s.62-6.1-12.81-15c-3.85-2.78-10.9-9.06-10.91-12.6"/><path class="cls-1" d="M169.44,107.23s-8.17.91-17.16,10.94c-4.51,5.53-17.42,6.32-17.42,6.32s.4,6.12-13.32,14.54c-4,2.65-11.21,8.67-11.34,12.21"/><path class="cls-1" d="M52.51,105.22s8.13,1.19,16.77,11.53c4.32,5.67,17.2,6.91,17.2,6.91s-.62,6.1,12.81,15c3.85,2.78,10.9,9,10.91,12.59"/><line class="cls-1" x1="54.38" y1="61.91" x2="167.78" y2="150.26"/><line class="cls-1" x1="169.2" y1="63.74" x2="52.75" y2="148.27"/><circle class="cls-2" cx="112.07" cy="106.39" r="96.17"/><circle class="cls-3" cx="112.07" cy="106.39" r="89.56"/><text class="cls-4" transform="translate(108.38 100.7)">1</text><text class="cls-4" transform="translate(93.19 110)">12</text><text class="cls-4" transform="translate(106.09 119.36)">4</text><text class="cls-4" transform="translate(117.88 110)">6</text><text class="cls-5" transform="translate(68.11 88.32) scale(0.9 1)">7</text><text class="cls-5" transform="translate(134.77 137.61) scale(0.9 1)">8</text><text class="cls-5" transform="translate(81.36 137.75) scale(0.9 1)">9</text><text class="cls-5" transform="translate(133.83 79.37) scale(0.9 1)">10</text><text class="cls-5" transform="translate(147.01 90.26) scale(0.9 1)">3</text><text class="cls-5" transform="translate(67.23 130.1) scale(0.9 1)">2</text><text class="cls-5" transform="translate(146.04 131.1) scale(0.9 1)">5</text><text class="cls-5" transform="translate(69.6 70.88) scale(0.9 1)">11</text></g></svg>