<svg xmlns="http://www.w3.org/2000/svg" viewBox="0 0 220 220"><defs><style>.cls-1,.cls-2,.cls-3{fill:none;stroke-miterlimit:10;}.cls-1{stroke:#231f20;stroke-width:2.99px;}.cls-2{stroke:#000;stroke-width:1.28px;}.cls-3{stroke:#f27121;stroke-width:1.7px;}.cls-4{fill:#f27121;}</style></defs><g id="Layer_2" data-name="Layer 2"><circle class="cls-1" cx="110" cy="110" r="94.68"/><path class="cls-2" d="M63.51,73.3a11.23,11.23,0,0,1,0,21.7v12.29h17v6.3a6.1,6.1,0,1,0,12.2,0v-6.3h17v-17h6.66a6.1,6.1,0,0,0,0-12.2h-6.66V61H63.51Z"/><path class="cls-2" d="M126.57,58.51V61H113V75.24h3.47a8.91,8.91,0,0,1,0,17.81H113v14.24h11.08a12.35,12.35,0,0,1,24.12,0h11.08V61H145.67v-2.5a9.55,9.55,0,1,0-19.1,0Z"/><path class="cls-2" d="M126.57,110V112H113v14.23h3.47a8.91,8.91,0,0,1,0,17.81H113v14.24h12.28a11.23,11.23,0,0,1,21.72,0h12.28V143h-.38a7.79,7.79,0,1,1,0-15.57h.38V112H145.67V110a9.55,9.55,0,1,0-19.1,0Z"/><path class="cls-3" d="M60.29,125.61a9.56,9.56,0,0,0,0,19.11h3.22v13.59H77.09v3.18a9.56,9.56,0,0,0,19.11,0v-3.18h13.59v-17h6.66a6.1,6.1,0,0,0,0-12.2h-6.66V112H95.55v1.56a8.91,8.91,0,0,1-17.81,0V112H63.51v13.58Z"/><path class="cls-4" d="M145.54,134.17c0,5.36-5.78,6.14-8,9.68-2.27-3.54-8.06-4.32-8.06-9.68a4.18,4.18,0,0,1,.68-2.27,4.33,4.33,0,0,1,4.36-1.86,4.41,4.41,0,0,1,3,2.33,4.37,4.37,0,0,1,3-2.33,4.33,4.33,0,0,1,4.35,1.86A4.18,4.18,0,0,1,145.54,134.17Z"/><path d="M94.7,134.17c0,5.36-5.78,6.14-8,9.68-2.27-3.54-8.06-4.32-8.06-9.68a4.18,4.18,0,0,1,.68-2.27A4.33,4.33,0,0,1,83.63,130a4.41,4.41,0,0,1,3,2.33,4.37,4.37,0,0,1,3-2.33A4.33,4.33,0,0,1,94,131.9,4.18,4.18,0,0,1,94.7,134.17Z"/></g></svg>