<svg id="Layer_1" data-name="Layer 1" xmlns="http://www.w3.org/2000/svg" viewBox="0 0 220 220"><defs><style>.cls-1,.cls-2,.cls-3,.cls-4,.cls-5,.cls-6,.cls-7{fill:none;}.cls-1,.cls-4,.cls-6{stroke:#f27121;}.cls-2,.cls-3,.cls-5,.cls-7{stroke:#000;}.cls-2,.cls-4{stroke-width:2px;}.cls-3{stroke-width:2.46px;}.cls-5{stroke-width:2.89px;}.cls-6{stroke-miterlimit:10;}.cls-7{stroke-width:2.58px;}</style></defs><ellipse class="cls-1" cx="55.69" cy="112.79" rx="2.64" ry="2.56" transform="matrix(0, -1, 1, 0, -57.19, 168.28)"/><path class="cls-2" d="M63.89,110.84l-1.46,3a7.47,7.47,0,0,1-10.2,3.43l-4.74-2.49,1.46-3a7.49,7.49,0,0,1,10.21-3.42Z"/><path class="cls-3" d="M65.72,55.33a10,10,0,0,0-2.69.4L20.34,68.29a10.57,10.57,0,0,0-7,13L32.5,150.76A10.14,10.14,0,0,0,45.08,158l20.47-6"/><polyline class="cls-4" points="65.6 121.45 40.04 128.97 49.48 90.22 65.63 106.38"/><rect class="cls-5" x="65.12" y="50.51" width="77.23" height="107.75" rx="12.15"/><circle class="cls-4" cx="103.73" cy="104.39" r="10.38"/><path class="cls-4" d="M104.5,83.15a3.27,3.27,0,0,0-3.2,3.63c.22,1.34,1.25,2.37,2,3.47s1.36,2.64.6,3.76"/><path class="cls-4" d="M93.78,85.61a3.28,3.28,0,0,0-1,4.75c.86,1,2.27,1.42,3.5,2s2.5,1.61,2.4,3"/><path class="cls-4" d="M85.72,93.1a3.27,3.27,0,0,0,1.55,4.59c1.27.48,2.67.1,4,0s3,.15,3.56,1.37"/><path class="cls-4" d="M82.49,103.62a3.27,3.27,0,0,0,3.64,3.2c1.33-.22,2.36-1.25,3.46-2s2.64-1.36,3.76-.6"/><path class="cls-4" d="M85,114.34a3.28,3.28,0,0,0,4.75,1c1-.86,1.42-2.27,2-3.5s1.61-2.5,3-2.4"/><path class="cls-4" d="M92.44,122.4a3.28,3.28,0,0,0,4.6-1.55c.47-1.27.09-2.67,0-4s.14-3,1.36-3.56"/><path class="cls-4" d="M103,125.63a3.27,3.27,0,0,0,3.21-3.64c-.23-1.34-1.26-2.36-2-3.46s-1.36-2.64-.6-3.76"/><path class="cls-4" d="M113.68,123.17a3.27,3.27,0,0,0,1-4.75c-.86-1-2.27-1.42-3.5-2s-2.5-1.61-2.4-3"/><path class="cls-4" d="M121.74,115.68a3.28,3.28,0,0,0-1.55-4.6c-1.26-.48-2.67-.09-4,0s-3-.14-3.56-1.36"/><path class="cls-4" d="M125,105.16a3.27,3.27,0,0,0-3.64-3.21c-1.33.22-2.36,1.26-3.46,2s-2.64,1.36-3.76.6"/><path class="cls-4" d="M122.51,94.44a3.27,3.27,0,0,0-4.75-1c-1.05.86-1.42,2.27-2,3.5s-1.6,2.5-3,2.4"/><path class="cls-4" d="M115,86.38a3.29,3.29,0,0,0-4.6,1.55c-.47,1.26-.09,2.67,0,4s-.15,3-1.37,3.55"/><rect class="cls-6" x="70.63" y="55.68" width="65.95" height="97.12" rx="5.41"/><path class="cls-7" d="M142.35,151.31,180,158.6A10.86,10.86,0,0,0,192.69,150l14.17-73.19a10.84,10.84,0,0,0-8.59-12.71l-46.42-9a10.76,10.76,0,0,0-9.5,2.78"/><polygon class="cls-4" points="169.64 87.63 145.41 115.54 181.69 122.57 169.64 87.63"/><polygon class="cls-4" points="162.19 126.08 186.42 98.17 150.13 91.14 162.19 126.08"/><circle class="cls-4" cx="171.87" cy="76.08" r="6.94"/><circle class="cls-4" cx="159.95" cy="137.63" r="6.94"/></svg>