<svg xmlns="http://www.w3.org/2000/svg" viewBox="0 0 220 220"><defs><style>.cls-1,.cls-2,.cls-3{fill:none;}.cls-1{stroke:#231f20;stroke-width:2.99px;}.cls-1,.cls-4{stroke-miterlimit:10;}.cls-2,.cls-3,.cls-4{stroke:#221f20;}.cls-2,.cls-3{stroke-linecap:round;stroke-linejoin:round;}.cls-2{stroke-width:1.18px;}.cls-3{stroke-width:0.95px;}.cls-4{fill:#606060;stroke-width:0.49px;}.cls-5{fill:#f27121;}.cls-6{font-size:11.9px;font-family:Poppins-Bold, Poppins;font-weight:700;}</style></defs><g id="Layer_2" data-name="Layer 2"><circle class="cls-1" cx="110" cy="110" r="94.42"/><polyline class="cls-2" points="94.55 107.48 94.55 132.11 125.36 132.11 125.36 107.48"/><polyline class="cls-2" points="115.34 130.22 115.34 115.17 104.56 115.17 104.56 130.22"/><path class="cls-2" d="M89.31,108.43l17.58-17.59a3.71,3.71,0,0,1,5.23,0l17.41,17.4"/><polyline class="cls-3" points="124.87 100.04 124.87 90.7 119.06 90.7 119.06 94.46"/><line class="cls-4" x1="102.02" y1="69.07" x2="103.24" y2="75.41"/><line class="cls-4" x1="98.33" y1="69.9" x2="100.1" y2="76.11"/><line class="cls-4" x1="94.72" y1="71.05" x2="97.02" y2="77.07"/><line class="cls-4" x1="91.23" y1="72.5" x2="94.04" y2="78.31"/><line class="cls-4" x1="87.87" y1="74.26" x2="91.18" y2="79.8"/><line class="cls-4" x1="84.68" y1="76.3" x2="88.47" y2="81.53"/><line class="cls-4" x1="81.69" y1="78.61" x2="85.91" y2="83.49"/><line class="cls-4" x1="78.9" y1="81.17" x2="83.53" y2="85.67"/><line class="cls-4" x1="76.35" y1="83.97" x2="81.35" y2="88.04"/><line class="cls-4" x1="74.05" y1="86.98" x2="79.39" y2="90.6"/><line class="cls-4" x1="72.02" y1="90.18" x2="77.66" y2="93.32"/><line class="cls-4" x1="70.28" y1="93.54" x2="76.17" y2="96.17"/><line class="cls-4" x1="68.84" y1="97.04" x2="74.94" y2="99.15"/><line class="cls-4" x1="67.71" y1="100.65" x2="73.97" y2="102.23"/><line class="cls-4" x1="66.43" y1="115.67" x2="72.85" y2="115.01"/><line class="cls-4" x1="66.93" y1="119.42" x2="73.27" y2="118.2"/><line class="cls-4" x1="67.76" y1="123.11" x2="73.97" y2="121.35"/><line class="cls-4" x1="68.91" y1="126.72" x2="74.93" y2="124.42"/><line class="cls-4" x1="70.36" y1="130.22" x2="76.17" y2="127.4"/><line class="cls-4" x1="72.12" y1="133.57" x2="77.65" y2="130.26"/><line class="cls-4" x1="74.16" y1="136.76" x2="79.39" y2="132.98"/><line class="cls-4" x1="76.47" y1="139.76" x2="81.35" y2="135.53"/><line class="cls-4" x1="79.03" y1="142.54" x2="83.52" y2="137.91"/><line class="cls-4" x1="81.83" y1="145.09" x2="85.9" y2="140.09"/><line class="cls-4" x1="84.84" y1="147.39" x2="88.46" y2="142.05"/><line class="cls-4" x1="88.04" y1="149.42" x2="91.17" y2="143.78"/><line class="cls-4" x1="91.4" y1="151.16" x2="94.03" y2="145.27"/><line class="cls-4" x1="94.9" y1="152.6" x2="97.01" y2="146.51"/><line class="cls-4" x1="98.51" y1="153.73" x2="100.08" y2="147.48"/><line class="cls-4" x1="102.21" y1="154.54" x2="103.23" y2="148.17"/><line class="cls-4" x1="117.28" y1="154.51" x2="116.06" y2="148.18"/><line class="cls-4" x1="120.97" y1="153.68" x2="119.21" y2="147.48"/><line class="cls-4" x1="124.58" y1="152.54" x2="122.28" y2="146.51"/><line class="cls-4" x1="128.08" y1="151.08" x2="125.26" y2="145.28"/><line class="cls-4" x1="131.43" y1="149.33" x2="128.12" y2="143.79"/><line class="cls-4" x1="134.62" y1="147.28" x2="130.84" y2="142.06"/><line class="cls-4" x1="137.62" y1="144.97" x2="133.39" y2="140.1"/><line class="cls-4" x1="140.4" y1="142.41" x2="135.77" y2="137.92"/><line class="cls-4" x1="142.95" y1="139.61" x2="137.95" y2="135.54"/><line class="cls-4" x1="145.25" y1="136.61" x2="139.91" y2="132.99"/><line class="cls-4" x1="147.28" y1="133.41" x2="141.64" y2="130.27"/><line class="cls-4" x1="149.02" y1="130.05" x2="143.13" y2="127.41"/><line class="cls-4" x1="150.46" y1="126.55" x2="144.37" y2="124.43"/><line class="cls-4" x1="151.59" y1="122.93" x2="145.33" y2="121.36"/><line class="cls-4" x1="152.4" y1="119.24" x2="146.03" y2="118.21"/><line class="cls-4" x1="152.37" y1="104.16" x2="146.03" y2="105.38"/><line class="cls-4" x1="151.54" y1="100.47" x2="145.34" y2="102.24"/><line class="cls-4" x1="150.4" y1="96.86" x2="144.37" y2="99.16"/><line class="cls-4" x1="148.94" y1="93.37" x2="143.14" y2="96.18"/><line class="cls-4" x1="147.18" y1="90.01" x2="141.65" y2="93.33"/><line class="cls-4" x1="145.14" y1="86.83" x2="139.92" y2="90.61"/><line class="cls-4" x1="142.83" y1="83.83" x2="137.96" y2="88.05"/><line class="cls-4" x1="140.27" y1="81.04" x2="135.78" y2="85.67"/><line class="cls-4" x1="137.47" y1="78.49" x2="133.4" y2="83.5"/><line class="cls-4" x1="134.46" y1="76.19" x2="130.85" y2="81.53"/><line class="cls-4" x1="131.27" y1="74.17" x2="128.13" y2="79.8"/><line class="cls-4" x1="127.91" y1="72.42" x2="125.27" y2="78.31"/><line class="cls-4" x1="124.4" y1="70.98" x2="122.29" y2="77.08"/><line class="cls-4" x1="120.79" y1="69.85" x2="119.22" y2="76.11"/><line class="cls-4" x1="117.09" y1="69.04" x2="116.07" y2="75.41"/><polygon class="cls-5" points="109.42 170.04 118.13 170.04 113.77 177.59 109.42 185.13 105.06 177.59 100.7 170.04 109.42 170.04"/><polygon class="cls-5" points="109.42 55.08 100.7 55.08 105.06 47.54 109.42 39.99 113.77 47.54 118.13 55.08 109.42 55.08"/><polygon class="cls-5" points="160.89 111.79 160.89 103.08 168.43 107.44 175.98 111.79 168.43 116.15 160.89 120.5 160.89 111.79"/><polygon class="cls-5" points="57.95 111.79 57.95 120.5 50.4 116.15 42.86 111.79 50.4 107.44 57.95 103.08 57.95 111.79"/><text class="cls-6" transform="translate(105.37 35.92)">N</text><text class="cls-6" transform="translate(25.04 115.34)">W</text><text class="cls-6" transform="translate(115.36 188.08) rotate(180)">S</text><text class="cls-6" transform="translate(185.42 115.01)">E</text></g></svg>